<?xml version="1.0" encoding="UTF-8" standalone="no"?>
<!-- Created with Inkscape (http://www.inkscape.org/) -->

<svg
   width="145.03246mm"
   height="50.178196mm"
   viewBox="0 0 145.03246 50.178196"
   version="1.1"
   id="svg5"
   inkscape:version="1.1.2 (0a00cf5339, 2022-02-04)"
   sodipodi:docname="SUST.svg"
   xmlns:inkscape="http://www.inkscape.org/namespaces/inkscape"
   xmlns:sodipodi="http://sodipodi.sourceforge.net/DTD/sodipodi-0.dtd"
   xmlns="http://www.w3.org/2000/svg"
   xmlns:svg="http://www.w3.org/2000/svg">
  <sodipodi:namedview
     id="namedview7"
     pagecolor="#ffffff"
     bordercolor="#666666"
     borderopacity="1.0"
     inkscape:pageshadow="2"
     inkscape:pageopacity="0.0"
     inkscape:pagecheckerboard="0"
     inkscape:document-units="mm"
     showgrid="false"
     fit-margin-top="0"
     fit-margin-left="0"
     fit-margin-right="0"
     fit-margin-bottom="0"
     inkscape:zoom="1.4396184"
     inkscape:cx="229.92204"
     inkscape:cy="149.69245"
     inkscape:window-width="1851"
     inkscape:window-height="1016"
     inkscape:window-x="0"
     inkscape:window-y="0"
     inkscape:window-maximized="1"
     inkscape:current-layer="layer1" />
  <defs
     id="defs2" />
  <g
     inkscape:label="Layer 1"
     inkscape:groupmode="layer"
     id="layer1"
     transform="translate(-26.308842,-65.464111)">
    <path
       style="fill:none;stroke:#000000;stroke-width:0.391415px;stroke-linecap:butt;stroke-linejoin:miter;stroke-opacity:1"
       d="m 51.455955,75.687725 c 0,0 -15.236627,-13.127412 -19.025154,-1.218254 -3.788528,11.909157 20.387704,15.990423 20.419677,25.723349 0.03196,9.73291 -18.571313,15.97182 -19.269607,10.42296 -0.698294,-5.54885 32.609394,-29.255621 34.816703,-34.346266 2.207308,-5.090646 -5.7782,-9.664025 -5.924669,-3.068603 -0.146465,6.59542 1.14904,37.542829 11.394464,37.412699 10.245426,-0.13009 14.584751,-36.967611 12.110296,-38.898885 -2.474457,-1.931273 -5.388314,1.365891 -4.376459,4.3142 1.011857,2.948309 35.672824,2.338088 37.498484,-3.076259 1.82568,-5.414347 -14.57959,-4.785534 -20.849801,0.180441 -6.270199,4.965977 7.182011,20.007168 18.077251,20.340711 10.89524,0.333544 7.20986,18.518792 -7.48628,17.128832 -14.696151,-1.38993 -11.031398,-7.07549 -8.80862,-7.26031 2.22279,-0.18481 44.4185,13.59109 45.92958,5.25906 1.51108,-8.33204 5.14077,-38.268968 0.63333,-38.186949 -4.50746,0.08201 -26.85286,3.261075 -20.68065,3.820991 6.17222,0.559917 42.74342,-0.988601 42.74342,-0.988601"
       id="path942" />
  </g>
</svg>
